<svg width="60" height="17" viewBox="0 0 60 17" fill="none" xmlns="http://www.w3.org/2000/svg">
<path d="M5.72168 8.48242H4.05176V13H0.966797V0.203125H6.00293C7.52051 0.203125 8.70703 0.540039 9.5625 1.21387C10.418 1.8877 10.8457 2.83984 10.8457 4.07031C10.8457 4.96094 10.6641 5.69922 10.3008 6.28516C9.94336 6.87109 9.38086 7.3457 8.61328 7.70898L11.2852 12.8682V13H7.98047L5.72168 8.48242ZM4.05176 6.10059H6.00293C6.58887 6.10059 7.02832 5.94824 7.32129 5.64355C7.62012 5.33301 7.76953 4.90234 7.76953 4.35156C7.76953 3.80078 7.62012 3.37012 7.32129 3.05957C7.02246 2.74316 6.58301 2.58496 6.00293 2.58496H4.05176V6.10059ZM12.1992 8.15723C12.1992 7.20801 12.3838 6.36426 12.7529 5.62598C13.1221 4.88184 13.6523 4.31055 14.3438 3.91211C15.0352 3.51367 15.8467 3.31445 16.7783 3.31445C18.2021 3.31445 19.3242 3.75684 20.1445 4.6416C20.9648 5.52051 21.375 6.71875 21.375 8.23633V8.3418C21.375 9.82422 20.9619 11.002 20.1357 11.875C19.3154 12.7422 18.2021 13.1758 16.7959 13.1758C15.4424 13.1758 14.3555 12.7715 13.5352 11.9629C12.7148 11.1484 12.2725 10.0469 12.208 8.6582L12.1992 8.15723ZM15.1611 8.3418C15.1611 9.2207 15.2988 9.86523 15.5742 10.2754C15.8496 10.6855 16.2568 10.8906 16.7959 10.8906C17.8506 10.8906 18.3896 10.0791 18.4131 8.45605V8.15723C18.4131 6.45215 17.8682 5.59961 16.7783 5.59961C15.7881 5.59961 15.252 6.33496 15.1699 7.80566L15.1611 8.3418ZM22.3066 8.15723C22.3066 7.20801 22.4912 6.36426 22.8604 5.62598C23.2295 4.88184 23.7598 4.31055 24.4512 3.91211C25.1426 3.51367 25.9541 3.31445 26.8857 3.31445C28.3096 3.31445 29.4316 3.75684 30.252 4.6416C31.0723 5.52051 31.4824 6.71875 31.4824 8.23633V8.3418C31.4824 9.82422 31.0693 11.002 30.2432 11.875C29.4229 12.7422 28.3096 13.1758 26.9033 13.1758C25.5498 13.1758 24.4629 12.7715 23.6426 11.9629C22.8223 11.1484 22.3799 10.0469 22.3154 8.6582L22.3066 8.15723ZM25.2686 8.3418C25.2686 9.2207 25.4062 9.86523 25.6816 10.2754C25.957 10.6855 26.3643 10.8906 26.9033 10.8906C27.958 10.8906 28.4971 10.0791 28.5205 8.45605V8.15723C28.5205 6.45215 27.9756 5.59961 26.8857 5.59961C25.8955 5.59961 25.3594 6.33496 25.2773 7.80566L25.2686 8.3418ZM35.5869 3.49023L35.6836 4.60645C36.3574 3.74512 37.2627 3.31445 38.3994 3.31445C39.6006 3.31445 40.4121 3.79199 40.834 4.74707C41.4785 3.79199 42.4102 3.31445 43.6289 3.31445C45.5566 3.31445 46.5469 4.48047 46.5996 6.8125V13H43.6289V6.99707C43.6289 6.51074 43.5469 6.15625 43.3828 5.93359C43.2188 5.71094 42.9199 5.59961 42.4863 5.59961C41.9004 5.59961 41.4639 5.86035 41.1768 6.38184L41.1855 6.50488V13H38.2148V7.01465C38.2148 6.5166 38.1357 6.15625 37.9775 5.93359C37.8193 5.71094 37.5176 5.59961 37.0723 5.59961C36.5039 5.59961 36.0703 5.86035 35.7715 6.38184V13H32.8096V3.49023H35.5869ZM52.0928 8.85156L53.6748 3.49023H56.8477L52.9717 14.5908L52.8047 14.9951C52.2539 16.2256 51.2812 16.8408 49.8867 16.8408C49.5 16.8408 49.0928 16.7822 48.665 16.665V14.5469H49.0518C49.4678 14.5469 49.7842 14.4854 50.001 14.3623C50.2236 14.2451 50.3877 14.0312 50.4932 13.7207L50.7305 13.0879L47.4258 3.49023H50.5898L52.0928 8.85156ZM57.9814 10.126C58.4502 10.126 58.8398 10.2666 59.1504 10.5479C59.4609 10.8232 59.6162 11.1777 59.6162 11.6113C59.6162 12.0449 59.4609 12.4023 59.1504 12.6836C58.8398 12.959 58.4502 13.0967 57.9814 13.0967C57.5068 13.0967 57.1143 12.9561 56.8037 12.6748C56.499 12.3936 56.3467 12.0391 56.3467 11.6113C56.3467 11.1836 56.499 10.8291 56.8037 10.5479C57.1143 10.2666 57.5068 10.126 57.9814 10.126Z" fill="#69C1AC"/>
</svg>
