<svg width="65" height="65" viewBox="0 0 65 65" fill="none" xmlns="http://www.w3.org/2000/svg">
<path d="M54.3339 50.6391C57.251 47.1293 59.2799 42.9686 60.2489 38.5089C61.2179 34.0491 61.0986 29.4216 59.9009 25.0178C58.7033 20.6139 56.4626 16.5633 53.3684 13.2086C50.2742 9.85392 46.4175 7.29379 42.1246 5.74482C37.8317 4.19585 33.2289 3.7036 28.7055 4.30973C24.1822 4.91585 19.8713 6.60252 16.1377 9.22703C12.4041 11.8515 9.35745 15.3367 7.2556 19.3877C5.15375 23.4387 4.0585 27.9363 4.0625 32.5001C4.06403 39.1345 6.40198 45.5565 10.6661 50.6391L10.6255 50.6737C10.7677 50.8443 10.9302 50.9905 11.0764 51.1591C11.2592 51.3684 11.4562 51.5654 11.6452 51.7685C12.2139 52.386 12.7989 52.9791 13.4123 53.5357C13.5992 53.7063 13.7922 53.8648 13.9811 54.0273C14.6311 54.5879 15.2994 55.1201 15.992 55.6157C16.0814 55.6766 16.1627 55.7558 16.252 55.8188V55.7944C21.0094 59.1423 26.6847 60.939 32.502 60.939C38.3193 60.939 43.9946 59.1423 48.752 55.7944V55.8188C48.8414 55.7558 48.9206 55.6766 49.012 55.6157C49.7027 55.118 50.373 54.5879 51.023 54.0273C51.2119 53.8648 51.4048 53.7043 51.5917 53.5357C52.2052 52.9771 52.7902 52.386 53.3589 51.7685C53.5478 51.5654 53.7428 51.3684 53.9277 51.1591C54.0719 50.9905 54.2364 50.8443 54.3786 50.6716L54.3339 50.6391ZM32.5 16.2501C34.3078 16.2501 36.0751 16.7862 37.5783 17.7905C39.0814 18.7949 40.253 20.2225 40.9448 21.8927C41.6367 23.563 41.8177 25.4008 41.465 27.1739C41.1123 28.947 40.2417 30.5758 38.9634 31.8541C37.6851 33.1324 36.0564 34.003 34.2832 34.3557C32.5101 34.7084 30.6723 34.5274 29.002 33.8355C27.3318 33.1437 25.9042 31.9721 24.8998 30.469C23.8955 28.9658 23.3594 27.1985 23.3594 25.3907C23.3594 22.9664 24.3224 20.6415 26.0366 18.9273C27.7508 17.2131 30.0758 16.2501 32.5 16.2501ZM16.2642 50.6391C16.2995 47.972 17.3833 45.426 19.2814 43.552C21.1794 41.6779 23.7389 40.6264 26.4063 40.6251H38.5938C41.2611 40.6264 43.8206 41.6779 45.7187 43.552C47.6167 45.426 48.7005 47.972 48.7358 50.6391C44.2809 54.6536 38.4968 56.8752 32.5 56.8752C26.5032 56.8752 20.7191 54.6536 16.2642 50.6391Z" fill="#69C1AC"/>
</svg>
